<svg width="39" height="40" viewBox="0 0 39 40" fill="none" xmlns="http://www.w3.org/2000/svg">
<path fill-rule="evenodd" clip-rule="evenodd" d="M19.1838 1.63798C21.3994 0.360278 26.9525 -1.32956 32.34 1.7009C33.0531 2.12874 34.137 3.19834 32.7679 4.05403C32.254 4.37517 32.0488 4.50348 32.0652 4.58947C32.1034 4.78991 33.3459 4.76054 34.6932 6.40718C36.6185 8.76033 39.1855 15.3919 38.1159 20.0982C37.4208 23.1568 37.0871 22.0592 36.7037 20.7982C36.4972 20.119 36.2763 19.3923 35.9767 19.2425C35.6859 19.0971 35.7163 19.5694 35.774 20.4662C35.8861 22.2083 36.1012 25.5524 34.2653 29.083C31.4843 34.431 28.4894 35.5007 28.4894 33.3614C28.4894 32.0695 28.1773 32.6501 27.6945 33.5483C27.3779 34.1374 26.9878 34.8631 26.5641 35.2867C25.5144 36.3364 23.0226 38.8282 19.2908 39.123V39.1374C19.255 39.1354 19.2193 39.1332 19.1838 39.1308C19.1482 39.1332 19.1126 39.1354 19.0768 39.1373V39.123C15.345 38.8283 12.8532 36.3364 11.8035 35.2867C11.3798 34.8631 10.9897 34.1374 10.6731 33.5483C10.1903 32.6501 9.8782 32.0695 9.8782 33.3614C9.8782 35.5007 6.88329 34.4311 4.10229 29.083C2.26639 25.5524 2.48154 22.2083 2.59363 20.4662C2.65132 19.5694 2.68171 19.0971 2.39091 19.2425C2.09133 19.3923 1.87042 20.119 1.66391 20.7982C1.28056 22.0592 0.946843 23.1569 0.251702 20.0982C-0.817912 15.3919 1.74916 8.76034 3.67446 6.40719C5.02172 4.76055 6.26421 4.78991 6.30246 4.58948C6.31887 4.50348 6.11358 4.37518 5.59976 4.05404C4.23065 3.19835 5.31453 2.12874 6.0276 1.7009C11.4151 -1.32955 16.9682 0.360279 19.1838 1.63798Z" fill="#FF872D"/>
<path fill-rule="evenodd" clip-rule="evenodd" d="M19.1837 8.69108C17.271 7.48548 12.9467 5.9048 10.0919 8.75966C6.47142 12.3801 3.27501 29.1456 19.0768 29.2952V29.2963C19.1131 29.2963 19.1492 29.2962 19.1853 29.296C19.2203 29.2962 19.2554 29.2962 19.2905 29.2962V29.2952C35.0924 29.1456 31.8959 12.3801 28.2755 8.75968C25.4206 5.90482 21.0964 7.48549 19.1837 8.69108Z" fill="#FAD17B"/>
<circle cx="16.0437" cy="14.3327" r="1.06961" fill="#482B14"/>
<circle cx="22.0337" cy="14.3327" r="1.06961" fill="#482B14"/>
<path fill-rule="evenodd" clip-rule="evenodd" d="M19.0473 17.118C17.8593 17.0778 15.8303 17.2818 15.8303 18.4114C15.8303 19.9089 18.1835 20.7646 19.0392 20.7646C19.0418 20.7646 19.0444 20.7645 19.047 20.7644C19.0497 20.7645 19.0524 20.7646 19.0552 20.7646C19.9109 20.7646 22.264 19.9089 22.264 18.4114C22.264 17.2819 20.2354 17.0779 19.0473 17.118Z" fill="#985B2D"/>
<path fill-rule="evenodd" clip-rule="evenodd" d="M19.0393 19.9318C19.2555 19.9318 19.4307 20.107 19.4307 20.3231V22.4624C19.4307 22.6785 19.2555 22.8537 19.0393 22.8537C18.8232 22.8537 18.6479 22.6785 18.6479 22.4624V20.3231C18.6479 20.107 18.8232 19.9318 19.0393 19.9318Z" fill="#985B2D"/>
<path fill-rule="evenodd" clip-rule="evenodd" d="M16.1945 21.5431C16.3473 21.3903 16.5951 21.3903 16.748 21.5431C17.0611 21.8562 17.98 22.4981 19.0383 22.4981C20.0966 22.4981 21.0155 21.8562 21.3286 21.5431C21.4814 21.3903 21.7293 21.3903 21.8821 21.5431C22.0349 21.6959 22.0349 21.9437 21.8821 22.0966C21.4822 22.4965 20.3759 23.2808 19.0383 23.2808C17.7007 23.2808 16.5944 22.4965 16.1945 22.0966C16.0416 21.9437 16.0416 21.6959 16.1945 21.5431Z" fill="#985B2D"/>
</svg>
